<mxfile host="app.diagrams.net" modified="2023-12-18T07:26:55.595Z" agent="Mozilla/5.0 (Windows NT 10.0; Win64; x64) AppleWebKit/537.36 (KHTML, like Gecko) Chrome/120.0.0.0 Safari/537.36" etag="X98FAgxO4jjn6mRiB76I" version="22.1.11" type="github">
  <diagram name="Page-1" id="52a04d89-c75d-2922-d76d-85b35f80e030">
    <mxGraphModel dx="1434" dy="738" grid="1" gridSize="10" guides="1" tooltips="1" connect="1" arrows="1" fold="1" page="1" pageScale="1" pageWidth="1100" pageHeight="850" background="none" math="0" shadow="0">
      <root>
        <mxCell id="0" />
        <mxCell id="1" parent="0" />
        <mxCell id="17472293e6e8944d-30" value="&lt;b style=&quot;font-size: 17px;&quot;&gt;&amp;nbsp;EPIC 850k&lt;br&gt;&lt;br&gt;&lt;br&gt;&lt;/b&gt;" style="whiteSpace=wrap;html=1;rounded=0;shadow=0;comic=0;labelBackgroundColor=none;strokeWidth=1;fontFamily=Verdana;fontSize=12;align=center;fillColor=#e1d5e7;strokeColor=#9673a6;" parent="1" vertex="1">
          <mxGeometry x="60" y="17" width="150" height="110" as="geometry" />
        </mxCell>
        <mxCell id="1fdf3b25b50cf41e-1" value="Data importation and filtering" style="swimlane;html=1;fontStyle=0;childLayout=stackLayout;horizontal=1;startSize=30;fillColor=#ffe6cc;horizontalStack=0;resizeParent=1;resizeLast=0;collapsible=1;marginBottom=0;swimlaneFillColor=#ffffff;align=center;rounded=1;shadow=0;comic=0;labelBackgroundColor=none;strokeWidth=1;fontFamily=Verdana;fontSize=12;strokeColor=#d79b00;" parent="1" vertex="1">
          <mxGeometry x="255" y="40" width="200" height="60" as="geometry">
            <mxRectangle x="210" y="40" width="220" height="30" as="alternateBounds" />
          </mxGeometry>
        </mxCell>
        <mxCell id="1fdf3b25b50cf41e-2" value="champ.load()" style="text;html=1;spacingLeft=4;spacingRight=4;whiteSpace=wrap;overflow=hidden;rotatable=0;points=[[0,0.5],[1,0.5]];portConstraint=eastwest;align=center;rounded=1;" parent="1fdf3b25b50cf41e-1" vertex="1">
          <mxGeometry y="30" width="200" height="30" as="geometry" />
        </mxCell>
        <mxCell id="1fdf3b25b50cf41e-39" style="edgeStyle=none;html=1;labelBackgroundColor=none;startFill=0;startSize=8;endFill=1;endSize=8;fontFamily=Verdana;fontSize=12;exitX=0.5;exitY=1;exitDx=0;exitDy=0;entryX=0.5;entryY=0;entryDx=0;entryDy=0;fillColor=#ffe6cc;strokeColor=#d79b00;exitPerimeter=0;" parent="1" source="kF38xr9CEb3hzS80Rq1o-6" target="1fdf3b25b50cf41e-9" edge="1">
          <mxGeometry relative="1" as="geometry">
            <mxPoint x="655" y="70" as="targetPoint" />
          </mxGeometry>
        </mxCell>
        <mxCell id="1fdf3b25b50cf41e-7" value="BMIQ Normalization" style="swimlane;html=1;fontStyle=0;childLayout=stackLayout;horizontal=1;startSize=30;fillColor=#ffe6cc;horizontalStack=0;resizeParent=1;resizeLast=0;collapsible=1;marginBottom=0;swimlaneFillColor=#ffffff;align=center;rounded=1;shadow=0;comic=0;labelBackgroundColor=none;strokeWidth=1;fontFamily=Verdana;fontSize=12;strokeColor=#d79b00;" parent="1" vertex="1">
          <mxGeometry x="485" y="40" width="140" height="60" as="geometry" />
        </mxCell>
        <mxCell id="1fdf3b25b50cf41e-8" value="champ.norm()" style="text;html=1;spacingLeft=4;spacingRight=4;whiteSpace=wrap;overflow=hidden;rotatable=0;points=[[0,0.5],[1,0.5]];portConstraint=eastwest;align=center;rounded=1;" parent="1fdf3b25b50cf41e-7" vertex="1">
          <mxGeometry y="30" width="140" height="30" as="geometry" />
        </mxCell>
        <mxCell id="1fdf3b25b50cf41e-9" value="Mapping" style="swimlane;html=1;fontStyle=0;childLayout=stackLayout;horizontal=1;startSize=30;fillColor=#ffe6cc;horizontalStack=0;resizeParent=1;resizeLast=0;collapsible=1;marginBottom=0;swimlaneFillColor=#ffffff;align=center;rounded=1;shadow=0;comic=0;labelBackgroundColor=none;strokeWidth=1;fontFamily=Verdana;fontSize=12;strokeColor=#d79b00;" parent="1" vertex="1">
          <mxGeometry x="485" y="289" width="140" height="60" as="geometry" />
        </mxCell>
        <mxCell id="1fdf3b25b50cf41e-10" value="intersect()" style="text;html=1;spacingLeft=4;spacingRight=4;whiteSpace=wrap;overflow=hidden;rotatable=0;points=[[0,0.5],[1,0.5]];portConstraint=eastwest;align=center;rounded=1;" parent="1fdf3b25b50cf41e-9" vertex="1">
          <mxGeometry y="30" width="140" height="30" as="geometry" />
        </mxCell>
        <mxCell id="1fdf3b25b50cf41e-17" value="LINE1" style="swimlane;html=1;fontStyle=0;childLayout=stackLayout;horizontal=1;startSize=30;fillColor=#dae8fc;horizontalStack=0;resizeParent=1;resizeLast=0;collapsible=1;marginBottom=0;swimlaneFillColor=#ffffff;align=center;rounded=1;shadow=0;comic=0;labelBackgroundColor=none;strokeWidth=1;fontFamily=Verdana;fontSize=12;strokeColor=#6c8ebf;" parent="1" vertex="1">
          <mxGeometry x="81.5" y="499" width="140" height="60" as="geometry" />
        </mxCell>
        <mxCell id="4qwCoFZ07J---frFrzl5-16" value="intersect()" style="text;html=1;strokeColor=none;fillColor=none;spacingLeft=4;spacingRight=4;whiteSpace=wrap;overflow=hidden;rotatable=0;points=[[0,0.5],[1,0.5]];portConstraint=eastwest;align=center;" parent="1fdf3b25b50cf41e-17" vertex="1">
          <mxGeometry y="30" width="140" height="30" as="geometry" />
        </mxCell>
        <mxCell id="1fdf3b25b50cf41e-44" style="edgeStyle=none;html=1;labelBackgroundColor=none;startFill=0;startSize=8;endFill=1;endSize=8;fontFamily=Verdana;fontSize=12;" parent="1" source="1fdf3b25b50cf41e-19" target="1fdf3b25b50cf41e-21" edge="1">
          <mxGeometry relative="1" as="geometry" />
        </mxCell>
        <mxCell id="1fdf3b25b50cf41e-48" style="edgeStyle=none;html=1;labelBackgroundColor=none;startFill=0;startSize=8;endFill=1;endSize=8;fontFamily=Verdana;fontSize=12;" parent="1" source="1fdf3b25b50cf41e-19" target="1fdf3b25b50cf41e-17" edge="1">
          <mxGeometry relative="1" as="geometry" />
        </mxCell>
        <mxCell id="1fdf3b25b50cf41e-19" value="DMP" style="swimlane;html=1;fontStyle=0;childLayout=stackLayout;horizontal=1;startSize=30;fillColor=#ffe6cc;horizontalStack=0;resizeParent=1;resizeLast=0;collapsible=1;marginBottom=0;swimlaneFillColor=#ffffff;align=center;rounded=1;shadow=0;comic=0;labelBackgroundColor=none;strokeWidth=1;fontFamily=Verdana;fontSize=12;strokeColor=#d79b00;" parent="1" vertex="1">
          <mxGeometry x="210.5" y="399" width="140" height="60" as="geometry" />
        </mxCell>
        <mxCell id="1fdf3b25b50cf41e-20" value="champ.DMP()" style="text;html=1;spacingLeft=4;spacingRight=4;whiteSpace=wrap;overflow=hidden;rotatable=0;points=[[0,0.5],[1,0.5]];portConstraint=eastwest;align=center;rounded=1;" parent="1fdf3b25b50cf41e-19" vertex="1">
          <mxGeometry y="30" width="140" height="30" as="geometry" />
        </mxCell>
        <mxCell id="1fdf3b25b50cf41e-21" value="Alu" style="swimlane;html=1;fontStyle=0;childLayout=stackLayout;horizontal=1;startSize=30;fillColor=#d5e8d4;horizontalStack=0;resizeParent=1;resizeLast=0;collapsible=1;marginBottom=0;swimlaneFillColor=#ffffff;align=center;rounded=1;shadow=0;comic=0;labelBackgroundColor=none;strokeWidth=1;fontFamily=Verdana;fontSize=12;strokeColor=#82b366;" parent="1" vertex="1">
          <mxGeometry x="349.5" y="499" width="142" height="60" as="geometry" />
        </mxCell>
        <mxCell id="4qwCoFZ07J---frFrzl5-17" value="intersect()" style="text;html=1;strokeColor=none;fillColor=none;spacingLeft=4;spacingRight=4;whiteSpace=wrap;overflow=hidden;rotatable=0;points=[[0,0.5],[1,0.5]];portConstraint=eastwest;align=center;" parent="1fdf3b25b50cf41e-21" vertex="1">
          <mxGeometry y="30" width="142" height="30" as="geometry" />
        </mxCell>
        <mxCell id="1fdf3b25b50cf41e-36" style="edgeStyle=none;html=1;labelBackgroundColor=none;startFill=0;startSize=8;endFill=1;endSize=8;fontFamily=Verdana;fontSize=12;exitX=0.25;exitY=1;exitDx=0;exitDy=0;entryX=0.5;entryY=0;entryDx=0;entryDy=0;fillColor=#ffe6cc;strokeColor=#d79b00;" parent="1" source="1fdf3b25b50cf41e-9" target="1fdf3b25b50cf41e-19" edge="1">
          <mxGeometry relative="1" as="geometry">
            <Array as="points" />
          </mxGeometry>
        </mxCell>
        <mxCell id="4qwCoFZ07J---frFrzl5-2" style="edgeStyle=none;html=1;labelBackgroundColor=none;startFill=0;startSize=8;endFill=1;endSize=8;fontFamily=Verdana;fontSize=12;entryX=0.007;entryY=-0.012;entryDx=0;entryDy=0;entryPerimeter=0;fillColor=#ffe6cc;strokeColor=#d79b00;" parent="1" target="1fdf3b25b50cf41e-8" edge="1">
          <mxGeometry relative="1" as="geometry">
            <mxPoint x="455" y="70" as="sourcePoint" />
            <mxPoint x="484" y="69.5" as="targetPoint" />
          </mxGeometry>
        </mxCell>
        <mxCell id="4qwCoFZ07J---frFrzl5-4" style="edgeStyle=none;html=1;labelBackgroundColor=none;startFill=0;startSize=8;endFill=1;endSize=8;fontFamily=Verdana;fontSize=12;" parent="1" edge="1">
          <mxGeometry relative="1" as="geometry">
            <mxPoint x="225" y="70" as="sourcePoint" />
            <mxPoint x="254" y="69.5" as="targetPoint" />
          </mxGeometry>
        </mxCell>
        <mxCell id="4qwCoFZ07J---frFrzl5-7" value="LINE1" style="swimlane;html=1;fontStyle=0;childLayout=stackLayout;horizontal=1;startSize=30;fillColor=#dae8fc;horizontalStack=0;resizeParent=1;resizeLast=0;collapsible=1;marginBottom=0;swimlaneFillColor=#ffffff;align=center;rounded=1;shadow=0;comic=0;labelBackgroundColor=none;strokeWidth=1;fontFamily=Verdana;fontSize=12;strokeColor=#6c8ebf;" parent="1" vertex="1">
          <mxGeometry x="618.5" y="499" width="142" height="60" as="geometry" />
        </mxCell>
        <mxCell id="4qwCoFZ07J---frFrzl5-18" value="intersect()" style="text;html=1;strokeColor=none;fillColor=none;spacingLeft=4;spacingRight=4;whiteSpace=wrap;overflow=hidden;rotatable=0;points=[[0,0.5],[1,0.5]];portConstraint=eastwest;align=center;" parent="4qwCoFZ07J---frFrzl5-7" vertex="1">
          <mxGeometry y="30" width="142" height="30" as="geometry" />
        </mxCell>
        <mxCell id="4qwCoFZ07J---frFrzl5-9" style="edgeStyle=none;html=1;labelBackgroundColor=none;startFill=0;startSize=8;endFill=1;endSize=8;fontFamily=Verdana;fontSize=12;" parent="1" source="4qwCoFZ07J---frFrzl5-11" target="4qwCoFZ07J---frFrzl5-13" edge="1">
          <mxGeometry relative="1" as="geometry" />
        </mxCell>
        <mxCell id="4qwCoFZ07J---frFrzl5-10" style="edgeStyle=none;html=1;labelBackgroundColor=none;startFill=0;startSize=8;endFill=1;endSize=8;fontFamily=Verdana;fontSize=12;" parent="1" source="4qwCoFZ07J---frFrzl5-11" target="4qwCoFZ07J---frFrzl5-7" edge="1">
          <mxGeometry relative="1" as="geometry" />
        </mxCell>
        <mxCell id="4qwCoFZ07J---frFrzl5-11" value="DMR" style="swimlane;html=1;fontStyle=0;childLayout=stackLayout;horizontal=1;startSize=30;fillColor=#ffe6cc;horizontalStack=0;resizeParent=1;resizeLast=0;collapsible=1;marginBottom=0;swimlaneFillColor=#ffffff;align=center;rounded=1;shadow=0;comic=0;labelBackgroundColor=none;strokeWidth=1;fontFamily=Verdana;fontSize=12;strokeColor=#d79b00;" parent="1" vertex="1">
          <mxGeometry x="760.5" y="399" width="140" height="60" as="geometry" />
        </mxCell>
        <mxCell id="4qwCoFZ07J---frFrzl5-12" value="champ.DMR()" style="text;html=1;spacingLeft=4;spacingRight=4;whiteSpace=wrap;overflow=hidden;rotatable=0;points=[[0,0.5],[1,0.5]];portConstraint=eastwest;align=center;rounded=1;" parent="4qwCoFZ07J---frFrzl5-11" vertex="1">
          <mxGeometry y="30" width="140" height="30" as="geometry" />
        </mxCell>
        <mxCell id="4qwCoFZ07J---frFrzl5-13" value="Alu" style="swimlane;html=1;fontStyle=0;childLayout=stackLayout;horizontal=1;startSize=30;fillColor=#d5e8d4;horizontalStack=0;resizeParent=1;resizeLast=0;collapsible=1;marginBottom=0;swimlaneFillColor=#ffffff;align=center;rounded=1;shadow=0;comic=0;labelBackgroundColor=none;strokeWidth=1;fontFamily=Verdana;fontSize=12;strokeColor=#82b366;" parent="1" vertex="1">
          <mxGeometry x="889.5" y="499" width="142" height="60" as="geometry" />
        </mxCell>
        <mxCell id="4qwCoFZ07J---frFrzl5-19" value="intersect()" style="text;html=1;strokeColor=none;fillColor=none;spacingLeft=4;spacingRight=4;whiteSpace=wrap;overflow=hidden;rotatable=0;points=[[0,0.5],[1,0.5]];portConstraint=eastwest;align=center;" parent="4qwCoFZ07J---frFrzl5-13" vertex="1">
          <mxGeometry y="30" width="142" height="30" as="geometry" />
        </mxCell>
        <mxCell id="4qwCoFZ07J---frFrzl5-15" style="edgeStyle=none;html=1;labelBackgroundColor=none;startFill=0;startSize=8;endFill=1;endSize=8;fontFamily=Verdana;fontSize=12;entryX=0.5;entryY=0;entryDx=0;entryDy=0;exitX=0.75;exitY=1;exitDx=0;exitDy=0;fillColor=#ffe6cc;strokeColor=#d79b00;" parent="1" source="1fdf3b25b50cf41e-9" target="4qwCoFZ07J---frFrzl5-11" edge="1">
          <mxGeometry relative="1" as="geometry">
            <mxPoint x="608.5" y="359" as="sourcePoint" />
            <Array as="points" />
          </mxGeometry>
        </mxCell>
        <mxCell id="4qwCoFZ07J---frFrzl5-38" value="Adjusted p-value &amp;lt;0.05: n = 0 CpGs &lt;br&gt;P-value &amp;lt;0.05: n= 4288 CpGs&lt;br&gt;P-value &amp;lt;0.05 &amp;amp; Δβ&amp;gt; 0.1:n = 55 CpGs&lt;br&gt;P-value &amp;lt;0.05 &amp;amp; Δβ&amp;lt;-0.1: n = 23 CpGs" style="text;html=1;spacingLeft=4;spacingRight=4;whiteSpace=wrap;overflow=hidden;rotatable=0;points=[[0,0.5],[1,0.5]];portConstraint=eastwest;align=left;rounded=1;fillColor=#dae8fc;strokeColor=#6c8ebf;" parent="1" vertex="1">
          <mxGeometry x="40.5" y="609" width="228.5" height="70" as="geometry" />
        </mxCell>
        <mxCell id="4qwCoFZ07J---frFrzl5-40" value="&lt;span style=&quot;color: rgb(0, 0, 0); font-family: Helvetica; font-size: 12px; font-style: normal; font-variant-ligatures: normal; font-variant-caps: normal; letter-spacing: normal; orphans: 2; text-indent: 0px; text-transform: none; widows: 2; word-spacing: 0px; -webkit-text-stroke-width: 0px; background-color: rgb(251, 251, 251); text-decoration-thickness: initial; text-decoration-style: initial; text-decoration-color: initial; float: none; display: inline !important;&quot;&gt;Female:&lt;/span&gt;" style="text;whiteSpace=wrap;html=1;fontSize=12;fontFamily=Helvetica;fontColor=default;align=center;fontStyle=1" parent="1" vertex="1">
          <mxGeometry y="579" width="80" height="30" as="geometry" />
        </mxCell>
        <mxCell id="4qwCoFZ07J---frFrzl5-41" value="&lt;span style=&quot;color: rgb(0, 0, 0); font-family: Helvetica; font-size: 12px; font-style: normal; font-variant-ligatures: normal; font-variant-caps: normal; letter-spacing: normal; orphans: 2; text-indent: 0px; text-transform: none; widows: 2; word-spacing: 0px; -webkit-text-stroke-width: 0px; background-color: rgb(251, 251, 251); text-decoration-thickness: initial; text-decoration-style: initial; text-decoration-color: initial; float: none; display: inline !important;&quot;&gt;Male:&lt;/span&gt;" style="text;whiteSpace=wrap;html=1;fontSize=12;fontFamily=Helvetica;fontColor=default;align=center;fontStyle=1" parent="1" vertex="1">
          <mxGeometry y="699" width="80" height="30" as="geometry" />
        </mxCell>
        <mxCell id="4qwCoFZ07J---frFrzl5-49" value="Adjusted p-value &amp;lt;0.05: n = 0 CpGs &lt;br&gt;P-value &amp;lt;0.05: n= 4186 CpGs&lt;br&gt;P-value &amp;lt;0.05 &amp;amp; Δβ&amp;gt; 0.1:n = 31 CpGs&lt;br&gt;P-value &amp;lt;0.05 &amp;amp; Δβ&amp;lt;-0.1: n = 20 CpGs" style="text;html=1;spacingLeft=4;spacingRight=4;whiteSpace=wrap;overflow=hidden;rotatable=0;points=[[0,0.5],[1,0.5]];portConstraint=eastwest;align=left;rounded=1;fillColor=#d5e8d4;strokeColor=#82b366;" parent="1" vertex="1">
          <mxGeometry x="299.5" y="609" width="229.5" height="70" as="geometry" />
        </mxCell>
        <mxCell id="Ja_EyhXRywDoUnEthyH--2" value="&lt;h3&gt;&lt;font face=&quot;Verdana&quot;&gt;&lt;span style=&quot;background-color: initial;&quot;&gt;Female: 735863&lt;br&gt;&lt;/span&gt;&lt;/font&gt;&lt;font face=&quot;Verdana&quot;&gt;&lt;span style=&quot;background-color: initial;&quot;&gt;Male: 736414&lt;/span&gt;&lt;/font&gt;&lt;/h3&gt;" style="text;html=1;spacingLeft=4;spacingRight=4;whiteSpace=wrap;overflow=hidden;rotatable=0;points=[[0,0.5],[1,0.5]];portConstraint=eastwest;align=left;rounded=1;fillColor=default;strokeColor=#d6b656;fillStyle=cross-hatch;" parent="1" vertex="1">
          <mxGeometry x="285" y="130" width="140" height="80" as="geometry" />
        </mxCell>
        <mxCell id="kF38xr9CEb3hzS80Rq1o-1" value="" style="html=1;shadow=0;dashed=0;align=center;verticalAlign=middle;shape=mxgraph.arrows2.arrow;dy=0.69;dx=15.5;direction=south;notch=0;fillColor=#ffe6cc;strokeColor=#d79b00;fillStyle=cross-hatch;" parent="1" vertex="1">
          <mxGeometry x="320" y="100" width="70" height="30" as="geometry" />
        </mxCell>
        <mxCell id="kF38xr9CEb3hzS80Rq1o-2" value="&lt;h3&gt;&lt;font face=&quot;Verdana&quot;&gt;&lt;span style=&quot;background-color: initial;&quot;&gt;LINE1: 32110&lt;br&gt;&lt;/span&gt;&lt;/font&gt;&lt;font face=&quot;Verdana&quot;&gt;&lt;span style=&quot;background-color: initial;&quot;&gt;Alu: 33778&lt;/span&gt;&lt;/font&gt;&lt;/h3&gt;" style="text;html=1;spacingLeft=4;spacingRight=4;whiteSpace=wrap;overflow=hidden;rotatable=0;points=[[0,0.5],[1,0.5]];portConstraint=eastwest;align=left;rounded=1;fillColor=default;strokeColor=#d6b656;fillStyle=cross-hatch;" parent="1" vertex="1">
          <mxGeometry x="660" y="279" width="140" height="80" as="geometry" />
        </mxCell>
        <mxCell id="kF38xr9CEb3hzS80Rq1o-5" value="Batch correction" style="swimlane;html=1;fontStyle=0;childLayout=stackLayout;horizontal=1;startSize=30;fillColor=#ffe6cc;horizontalStack=0;resizeParent=1;resizeLast=0;collapsible=1;marginBottom=0;swimlaneFillColor=#ffffff;align=center;rounded=1;shadow=0;comic=0;labelBackgroundColor=none;strokeWidth=1;fontFamily=Verdana;fontSize=12;strokeColor=#d79b00;" parent="1" vertex="1">
          <mxGeometry x="485" y="169" width="140" height="60" as="geometry" />
        </mxCell>
        <mxCell id="kF38xr9CEb3hzS80Rq1o-6" value="champ.runCombat()" style="text;html=1;spacingLeft=4;spacingRight=4;whiteSpace=wrap;overflow=hidden;rotatable=0;points=[[0,0.5],[1,0.5]];portConstraint=eastwest;align=center;rounded=1;" parent="kF38xr9CEb3hzS80Rq1o-5" vertex="1">
          <mxGeometry y="30" width="140" height="30" as="geometry" />
        </mxCell>
        <mxCell id="kF38xr9CEb3hzS80Rq1o-7" style="edgeStyle=none;html=1;labelBackgroundColor=none;startFill=0;startSize=8;endFill=1;endSize=8;fontFamily=Verdana;fontSize=12;entryX=0.5;entryY=0;entryDx=0;entryDy=0;fillColor=#ffe6cc;strokeColor=#d79b00;" parent="1" target="kF38xr9CEb3hzS80Rq1o-5" edge="1">
          <mxGeometry relative="1" as="geometry">
            <mxPoint x="555" y="160" as="targetPoint" />
            <mxPoint x="556" y="100" as="sourcePoint" />
          </mxGeometry>
        </mxCell>
        <mxCell id="kF38xr9CEb3hzS80Rq1o-8" value="" style="html=1;shadow=0;dashed=0;align=center;verticalAlign=middle;shape=mxgraph.arrows2.arrow;dy=0.69;dx=15.5;direction=south;notch=0;fillColor=#ffe6cc;strokeColor=#d79b00;fillStyle=cross-hatch;rotation=-90;" parent="1" vertex="1">
          <mxGeometry x="607" y="301.5" width="70" height="35" as="geometry" />
        </mxCell>
        <mxCell id="kF38xr9CEb3hzS80Rq1o-9" value="Adjusted p-value &amp;lt;0.05: n = 0 CpGs &lt;br&gt;P-value &amp;lt;0.05: n= 1472 CpGs&lt;br&gt;P-value &amp;lt;0.05 &amp;amp; Δβ&amp;gt; 0.1:n = 12 CpGs&lt;br&gt;P-value &amp;lt;0.05 &amp;amp; Δβ&amp;lt;-0.1: n = 12 CpGs" style="text;html=1;spacingLeft=4;spacingRight=4;whiteSpace=wrap;overflow=hidden;rotatable=0;points=[[0,0.5],[1,0.5]];portConstraint=eastwest;align=left;rounded=1;fillColor=#dae8fc;strokeColor=#6c8ebf;" parent="1" vertex="1">
          <mxGeometry x="40.5" y="729" width="228.5" height="70" as="geometry" />
        </mxCell>
        <mxCell id="kF38xr9CEb3hzS80Rq1o-10" value="Adjusted p-value &amp;lt;0.05: n = 0 CpGs &lt;br&gt;P-value &amp;lt;0.05: n= 1567 CpGs&lt;br&gt;P-value &amp;lt;0.05 &amp;amp; Δβ&amp;gt; 0.1:n = 2 CpGs&lt;br&gt;P-value &amp;lt;0.05 &amp;amp; Δβ&amp;lt;-0.1: n = 2 CpGs" style="text;html=1;spacingLeft=4;spacingRight=4;whiteSpace=wrap;overflow=hidden;rotatable=0;points=[[0,0.5],[1,0.5]];portConstraint=eastwest;align=left;rounded=1;fillColor=#d5e8d4;strokeColor=#82b366;" parent="1" vertex="1">
          <mxGeometry x="299.5" y="729" width="229.5" height="70" as="geometry" />
        </mxCell>
        <mxCell id="kF38xr9CEb3hzS80Rq1o-11" value="DMP.P-value &amp;lt;0.05: n= 5 DMRs&lt;br&gt;DMP.P-value &amp;lt;0.05 &amp;amp; p.value &amp;lt; &lt;br&gt;: n= 2 DMRs" style="text;html=1;spacingLeft=4;spacingRight=4;whiteSpace=wrap;overflow=hidden;rotatable=0;points=[[0,0.5],[1,0.5]];portConstraint=eastwest;align=left;rounded=1;fillColor=#dae8fc;strokeColor=#6c8ebf;" parent="1" vertex="1">
          <mxGeometry x="580" y="609" width="228.5" height="70" as="geometry" />
        </mxCell>
        <mxCell id="kF38xr9CEb3hzS80Rq1o-12" value="DMP.P-value &amp;lt;0.05: n= 2 DMRs&lt;br style=&quot;border-color: var(--border-color);&quot;&gt;DMP.P-value &amp;lt;0.05 &amp;amp; p.value &amp;lt;&lt;br style=&quot;border-color: var(--border-color);&quot;&gt;: n=0&amp;nbsp; DMRs" style="text;html=1;spacingLeft=4;spacingRight=4;whiteSpace=wrap;overflow=hidden;rotatable=0;points=[[0,0.5],[1,0.5]];portConstraint=eastwest;align=left;rounded=1;fillColor=#d5e8d4;strokeColor=#82b366;" parent="1" vertex="1">
          <mxGeometry x="839" y="609" width="229.5" height="70" as="geometry" />
        </mxCell>
        <mxCell id="kF38xr9CEb3hzS80Rq1o-13" value="DMP.P-value &amp;lt;0.05: n= 2 DMRs&lt;br style=&quot;border-color: var(--border-color);&quot;&gt;DMP.P-value &amp;lt;0.05 &amp;amp; p.value &amp;lt;&lt;br style=&quot;border-color: var(--border-color);&quot;&gt;: n= 0 DMRs" style="text;html=1;spacingLeft=4;spacingRight=4;whiteSpace=wrap;overflow=hidden;rotatable=0;points=[[0,0.5],[1,0.5]];portConstraint=eastwest;align=left;rounded=1;fillColor=#dae8fc;strokeColor=#6c8ebf;" parent="1" vertex="1">
          <mxGeometry x="580" y="729" width="228.5" height="70" as="geometry" />
        </mxCell>
        <mxCell id="kF38xr9CEb3hzS80Rq1o-14" value="DMP.P-value &amp;lt;0.05: n= 1 DMRs&lt;br style=&quot;border-color: var(--border-color);&quot;&gt;DMP.P-value &amp;lt;0.05 &amp;amp; p.value &amp;lt;&lt;br style=&quot;border-color: var(--border-color);&quot;&gt;: n= 0 DMRs" style="text;html=1;spacingLeft=4;spacingRight=4;whiteSpace=wrap;overflow=hidden;rotatable=0;points=[[0,0.5],[1,0.5]];portConstraint=eastwest;align=left;rounded=1;fillColor=#d5e8d4;strokeColor=#82b366;" parent="1" vertex="1">
          <mxGeometry x="839" y="729" width="229.5" height="70" as="geometry" />
        </mxCell>
        <mxCell id="kF38xr9CEb3hzS80Rq1o-16" value="&lt;h3&gt;&lt;font face=&quot;Verdana&quot;&gt;&lt;span style=&quot;background-color: initial;&quot;&gt;Male:&lt;/span&gt;&lt;/font&gt;&lt;/h3&gt;&lt;h3&gt;&lt;font face=&quot;Verdana&quot;&gt;&lt;span style=&quot;background-color: initial;&quot;&gt;LINE1: 32110&lt;br&gt;&lt;/span&gt;&lt;/font&gt;&lt;font face=&quot;Verdana&quot;&gt;&lt;span style=&quot;background-color: initial;&quot;&gt;Alu: 33778&lt;/span&gt;&lt;/font&gt;&lt;/h3&gt;" style="text;html=1;spacingLeft=4;spacingRight=4;whiteSpace=wrap;overflow=hidden;rotatable=0;points=[[0,0.5],[1,0.5]];portConstraint=eastwest;align=left;rounded=1;fillColor=default;strokeColor=#d6b656;fillStyle=cross-hatch;" parent="1" vertex="1">
          <mxGeometry x="580" y="380" width="140" height="99" as="geometry" />
        </mxCell>
        <mxCell id="kF38xr9CEb3hzS80Rq1o-17" value="&lt;h3&gt;&lt;font face=&quot;Verdana&quot;&gt;&lt;span style=&quot;background-color: initial;&quot;&gt;Female:&lt;/span&gt;&lt;/font&gt;&lt;/h3&gt;&lt;h3&gt;&lt;font face=&quot;Verdana&quot;&gt;&lt;span style=&quot;background-color: initial;&quot;&gt;LINE1: 24334&lt;br&gt;&lt;/span&gt;&lt;/font&gt;&lt;font face=&quot;Verdana&quot;&gt;&lt;span style=&quot;background-color: initial;&quot;&gt;Alu: 26618&lt;/span&gt;&lt;/font&gt;&lt;/h3&gt;" style="text;html=1;spacingLeft=4;spacingRight=4;whiteSpace=wrap;overflow=hidden;rotatable=0;points=[[0,0.5],[1,0.5]];portConstraint=eastwest;align=left;rounded=1;fillColor=default;strokeColor=#d6b656;fillStyle=cross-hatch;" parent="1" vertex="1">
          <mxGeometry x="389" y="380" width="140" height="99" as="geometry" />
        </mxCell>
        <mxCell id="qbtU2bMe_HhItYjz29Yd-3" value="" style="group" vertex="1" connectable="0" parent="1">
          <mxGeometry x="90" y="70" width="86" height="53.68000000000001" as="geometry" />
        </mxCell>
        <mxCell id="4qwCoFZ07J---frFrzl5-33" value="" style="image;aspect=fixed;perimeter=ellipsePerimeter;html=1;align=center;shadow=0;dashed=0;spacingTop=3;image=img/lib/active_directory/database_partition_2.svg;verticalAlign=middle;rotation=0;opacity=50;" parent="qbtU2bMe_HhItYjz29Yd-3" vertex="1">
          <mxGeometry x="14" y="8.54" width="61" height="45.14" as="geometry" />
        </mxCell>
        <mxCell id="4qwCoFZ07J---frFrzl5-36" value="F (16)" style="text;html=1;spacingLeft=4;spacingRight=4;whiteSpace=wrap;overflow=hidden;rotatable=0;points=[[0,0.5],[1,0.5]];portConstraint=eastwest;align=center;rounded=1;direction=west;" parent="qbtU2bMe_HhItYjz29Yd-3" vertex="1">
          <mxGeometry width="50" height="20" as="geometry" />
        </mxCell>
        <mxCell id="4qwCoFZ07J---frFrzl5-37" value="M (16)" style="text;html=1;spacingLeft=4;spacingRight=4;whiteSpace=wrap;overflow=hidden;rotatable=0;points=[[0,0.5],[1,0.5]];portConstraint=eastwest;align=center;rounded=1;direction=west;" parent="qbtU2bMe_HhItYjz29Yd-3" vertex="1">
          <mxGeometry x="36" y="11.54" width="50" height="20" as="geometry" />
        </mxCell>
      </root>
    </mxGraphModel>
  </diagram>
</mxfile>
